<svg width="1480" height="372" viewBox="0 0 1480 372" fill="none" xmlns="http://www.w3.org/2000/svg">
<path fill-rule="evenodd" clip-rule="evenodd" d="M26.1495 345.85C52.2991 372 94.3861 372 178.56 372H193.44C277.614 372 319.701 372 345.851 345.85C372 319.701 372 277.613 372 193.439V178.559C372 94.3846 372 52.2975 345.851 26.148C319.701 -5.51627e-06 277.614 -3.67659e-06 193.44 2.7596e-09L193.44 2.7696e-09L178.56 6.53195e-07L178.56 6.53204e-07C94.386 4.33256e-06 52.2991 6.17223e-06 26.1495 26.148C-5.51631e-06 52.2975 -3.67662e-06 94.3847 2.75954e-09 178.559L6.53194e-07 193.439C4.33257e-06 277.613 6.17227e-06 319.701 26.1495 345.85ZM287.205 247.26L262.06 240.978C259.039 240.107 256.906 237.386 256.799 234.224L253.662 141.713C252.755 129.469 243.665 119.73 234.167 116.862C233.634 116.701 233.064 116.918 232.748 117.377C232.427 117.843 232.551 118.489 232.999 118.835C235.345 120.651 241.8 126.576 241.8 136.796L241.782 257.751C241.782 269.431 230.745 277.997 219.361 275.153L193.834 268.776C191.006 267.785 189.042 265.15 188.939 262.112L185.802 169.594C184.895 157.349 175.806 147.611 166.307 144.743C165.774 144.582 165.205 144.799 164.889 145.258C164.568 145.724 164.692 146.37 165.14 146.716C167.485 148.532 173.955 154.443 173.955 164.663L173.936 285.644C173.936 297.324 162.9 305.89 151.515 303.046L79.4234 285.037C69.4006 282.533 62.3731 273.568 62.3731 263.285L62.3731 142.14C62.3731 130.46 73.4095 121.895 84.7936 124.738L130.219 136.086V114.247C130.219 102.568 141.255 94.0019 152.639 96.8457L198.063 108.193V86.354C198.063 74.6745 209.099 66.1085 220.483 68.9523L292.575 86.9612C302.598 89.465 309.625 98.4305 309.625 108.713V229.858C309.625 241.538 298.589 250.104 287.205 247.26Z" fill="#2B71F6"/>
<path d="M581.376 213.713C609.306 206.531 627.66 184.985 627.66 156.789C627.66 121.943 599.996 97.4705 561.16 97.4705H492V285.001H523.92V216.107H546.53L596.006 285.001H633.512L581.376 213.713ZM561.16 126.731C581.11 126.731 594.942 138.967 594.942 156.789C594.942 174.611 581.11 186.847 561.16 186.847H523.92V126.731H561.16Z" fill="black"/>
<path d="M705.351 287.661C722.109 287.661 737.537 278.883 746.315 264.253L752.433 285.001H775.309V146.681H744.719V226.747C744.719 246.431 731.685 260.263 713.863 260.263C696.307 260.263 684.071 246.431 684.071 226.747V146.681H653.481V230.205C653.481 263.455 675.825 287.661 705.351 287.661Z" fill="black"/>
<path d="M872.933 287.661C908.311 287.661 937.571 267.445 937.571 233.929C937.571 196.423 906.981 185.517 880.647 176.473C860.165 169.557 842.343 163.173 842.343 146.415C842.343 131.785 855.909 124.071 871.869 124.071C888.627 124.071 900.597 132.849 907.247 147.745L937.571 142.691C927.995 113.431 903.789 94.8105 870.805 94.8105C836.757 94.8105 809.625 114.495 809.625 148.011C809.625 185.783 840.215 196.157 866.549 204.935C886.765 211.585 904.853 217.969 904.853 234.993C904.853 249.889 891.287 258.401 873.199 258.401C852.451 258.401 841.279 248.559 831.437 230.737L800.581 236.057C809.625 267.711 838.353 287.661 872.933 287.661Z" fill="black"/>
<path d="M1020.79 258.401C1010.41 258.401 1005.36 253.347 1005.36 242.973V173.281H1046.59V146.681H1005.36V106.781H982.483L974.769 146.681H952.159V173.281H974.769V242.973C974.769 270.105 990.463 285.001 1020.79 285.001H1046.59L1049.25 258.401H1020.79Z" fill="black"/>
<path d="M1136.66 287.661C1180.02 287.661 1210.61 257.869 1210.61 215.841C1210.61 173.813 1180.02 144.021 1136.66 144.021C1093.31 144.021 1062.72 173.813 1062.72 215.841C1062.72 257.869 1093.31 287.661 1136.66 287.661ZM1136.66 259.731C1111.66 259.731 1094.64 241.909 1094.64 215.841C1094.64 189.773 1111.66 171.951 1136.66 171.951C1161.67 171.951 1178.69 189.773 1178.69 215.841C1178.69 241.909 1161.67 259.731 1136.66 259.731Z" fill="black"/>
<path d="M1267.8 285.001V203.339C1267.8 185.783 1276.31 175.941 1294.93 175.941H1312.48L1309.82 146.681H1303.97C1287.75 146.681 1275.24 151.203 1265.93 166.631L1260.08 146.681H1237.21V285.001H1267.8Z" fill="black"/>
<path d="M1463 214.245C1463 174.345 1433.21 144.021 1391.18 144.021C1349.16 144.021 1319.36 174.079 1319.36 215.841C1319.36 257.603 1349.16 287.661 1391.18 287.661C1419.91 287.661 1447.04 274.095 1457.42 247.761L1428.69 242.973C1422.04 252.815 1409.27 259.731 1393.05 259.731C1369.64 259.731 1354.21 245.367 1351.28 224.087H1462.47C1462.74 221.161 1463 217.969 1463 214.245ZM1391.18 170.621C1410.34 170.621 1424.7 182.857 1429.75 200.147H1353.15C1358.2 182.325 1372.56 170.621 1391.18 170.621Z" fill="black"/>
</svg>
